<svg xmlns="http://www.w3.org/2000/svg" xmlns:xlink="http://www.w3.org/1999/xlink" preserveAspectRatio="xMidYMid" width="64" height="64" viewBox="0 0 64 64">
  <defs>
    <style>
      .cls-1 {
        fill: #182350;
        fill-rule: evenodd;
      }
    </style>
  </defs>
  <path d="M32.863,63.803 C32.590,63.934 32.295,63.999 32.000,63.999 C31.705,63.999 31.410,63.934 31.137,63.803 C11.640,54.476 -0.000,38.101 -0.000,19.999 C-0.000,8.971 8.972,-0.001 20.000,-0.001 C24.342,-0.001 28.542,1.417 32.000,4.021 C32.092,3.953 32.187,3.895 32.279,3.828 C32.580,3.611 32.881,3.398 33.193,3.196 C33.367,3.083 33.547,2.980 33.725,2.872 C34.047,2.679 34.367,2.484 34.701,2.308 C34.826,2.242 34.955,2.187 35.082,2.125 C35.713,1.808 36.363,1.526 37.031,1.277 C37.285,1.182 37.535,1.082 37.793,0.997 C38.076,0.906 38.363,0.828 38.652,0.747 C38.957,0.663 39.262,0.581 39.568,0.512 C39.834,0.450 40.102,0.395 40.373,0.346 C40.742,0.277 41.113,0.222 41.488,0.175 C41.711,0.147 41.931,0.114 42.156,0.093 C42.768,0.036 43.383,-0.001 44.000,-0.001 C55.027,-0.001 64.000,8.971 64.000,19.999 C64.000,38.101 52.359,54.476 32.863,63.803 ZM44.000,3.999 C43.480,3.999 42.967,4.028 42.459,4.078 C42.229,4.100 42.000,4.141 41.771,4.173 C41.504,4.211 41.236,4.245 40.975,4.295 C40.683,4.352 40.396,4.425 40.111,4.497 C39.920,4.545 39.728,4.590 39.539,4.645 C39.223,4.738 38.910,4.845 38.600,4.957 C38.451,5.011 38.303,5.063 38.156,5.121 C37.826,5.250 37.502,5.395 37.182,5.546 C37.064,5.603 36.945,5.657 36.830,5.716 C36.496,5.886 36.166,6.067 35.844,6.259 C35.750,6.314 35.658,6.372 35.566,6.429 C35.232,6.637 34.906,6.857 34.588,7.090 C34.514,7.144 34.439,7.200 34.367,7.254 C34.043,7.501 33.725,7.759 33.416,8.032 C30.104,10.966 28.000,15.237 28.000,19.999 C28.000,21.104 27.104,22.000 26.000,22.000 C24.896,22.000 24.000,21.104 24.000,19.999 C24.000,14.945 25.899,10.337 29.003,6.812 C26.354,4.995 23.228,3.999 20.000,3.999 C11.178,3.999 4.000,11.177 4.000,19.999 C4.000,36.257 14.448,51.067 32.000,59.775 C49.553,51.067 60.000,36.257 60.000,19.999 C60.000,11.177 52.822,3.999 44.000,3.999 ZM54.000,22.000 C52.895,22.000 52.000,21.104 52.000,19.999 C52.000,15.588 48.412,11.999 44.000,11.999 C42.894,11.999 42.000,11.104 42.000,10.000 C42.000,8.895 42.894,7.999 44.000,7.999 C50.617,7.999 56.000,13.383 56.000,19.999 C56.000,21.104 55.105,22.000 54.000,22.000 Z" class="cls-1"/>
</svg>
