<svg xmlns="http://www.w3.org/2000/svg" xmlns:xlink="http://www.w3.org/1999/xlink" preserveAspectRatio="xMidYMid" width="30" height="64" viewBox="0 0 30 64">
  <defs>
    <style>
      .cls-1 {
        fill: #182350;
        fill-rule: evenodd;
      }
    </style>
  </defs>
  <path d="M28.873,38.556 C28.459,37.415 27.801,36.213 26.875,34.928 C26.395,34.304 25.879,33.668 25.326,33.022 C24.729,32.322 24.029,31.598 23.289,30.914 C22.551,30.183 21.779,29.493 21.004,28.864 C20.367,28.348 19.773,27.876 19.061,27.310 C17.754,26.262 16.670,25.345 15.805,24.565 C15.047,23.877 14.436,23.231 13.951,22.597 C13.463,21.994 13.147,21.481 12.877,20.806 C12.762,20.577 12.711,20.342 12.711,20.041 C12.711,19.797 12.756,19.576 12.844,19.385 C13.020,19.011 13.266,18.737 13.658,18.488 C14.408,18.001 15.199,17.996 15.840,18.252 C16.291,18.430 16.658,18.695 16.824,18.886 C17.096,19.297 17.217,19.653 17.217,20.041 C17.217,21.701 17.883,23.198 19.148,24.370 C21.570,26.613 25.502,26.619 27.936,24.367 C29.195,23.197 29.861,21.701 29.861,20.041 C29.861,18.095 29.476,16.226 28.676,14.400 C27.441,11.902 25.623,9.870 23.262,8.358 C21.359,7.154 19.258,6.418 16.998,6.136 L16.998,2.000 C16.998,0.895 16.103,-0.000 14.998,-0.000 C13.892,-0.000 12.998,0.895 12.998,2.000 L12.998,6.127 C11.658,6.286 10.391,6.599 9.238,7.081 C6.652,8.072 4.428,9.741 2.551,12.144 C1.771,13.274 1.150,14.508 0.705,15.806 C0.238,17.148 0.002,18.573 0.002,20.041 C0.002,21.850 0.398,23.715 1.186,25.590 C2.102,27.746 3.582,29.851 5.520,31.777 C6.361,32.701 7.289,33.588 8.285,34.422 L10.965,36.647 C12.322,37.707 13.369,38.593 14.172,39.358 C14.941,40.089 15.613,40.798 16.090,41.373 C16.539,41.942 16.852,42.459 17.113,43.116 C17.229,43.347 17.283,43.602 17.283,43.896 C17.283,44.173 17.234,44.418 17.166,44.577 C16.988,44.949 16.713,45.254 16.346,45.504 C15.975,45.742 15.580,45.848 15.066,45.848 C14.709,45.848 14.367,45.790 14.133,45.706 C13.709,45.529 13.350,45.259 13.168,45.042 C12.818,44.517 12.777,44.173 12.777,43.960 C12.777,42.261 12.111,40.741 10.846,39.565 C8.424,37.323 4.494,37.316 2.047,39.579 C0.795,40.755 0.133,42.270 0.133,43.960 C0.133,45.874 0.518,47.718 1.295,49.488 C2.484,52.014 4.316,54.065 6.721,55.571 C8.656,56.807 10.762,57.565 12.998,57.857 L12.998,61.999 C12.998,63.104 13.892,64.000 14.998,64.000 C16.103,64.000 16.998,63.104 16.998,61.999 L16.998,57.858 C18.273,57.692 19.559,57.378 20.863,56.877 C23.514,55.750 25.686,54.068 27.320,51.875 C29.098,49.477 29.998,46.814 29.998,43.960 C29.998,42.154 29.607,40.305 28.873,38.556 ZM24.109,49.490 C22.906,51.103 21.287,52.350 19.365,53.169 C15.645,54.592 11.930,54.154 8.861,52.191 C7.099,51.088 5.772,49.606 4.936,47.831 C4.402,46.619 4.133,45.316 4.133,43.960 C4.133,43.372 4.334,42.919 4.775,42.506 C5.256,42.061 5.791,41.853 6.457,41.853 C7.121,41.853 7.652,42.059 8.127,42.497 C8.576,42.917 8.777,43.368 8.777,43.960 C8.777,45.091 9.133,46.201 9.941,47.400 C10.652,48.288 11.545,48.960 12.674,49.429 C14.592,50.133 16.801,49.963 18.555,48.840 C19.543,48.164 20.289,47.314 20.803,46.245 C21.121,45.513 21.283,44.723 21.283,43.896 C21.283,42.989 21.088,42.131 20.773,41.509 C20.434,40.635 19.928,39.779 19.201,38.859 C18.590,38.119 17.824,37.311 16.930,36.460 C16.033,35.607 14.889,34.637 13.475,33.534 L10.846,31.350 C9.994,30.637 9.195,29.873 8.408,29.013 C6.772,27.382 5.580,25.705 4.869,24.036 C4.295,22.661 4.002,21.317 4.002,20.041 C4.002,19.020 4.164,18.037 4.486,17.113 C4.815,16.152 5.272,15.244 5.772,14.512 C7.123,12.787 8.770,11.544 10.726,10.795 C11.984,10.267 13.398,10.000 14.928,10.000 C17.215,10.000 19.301,10.585 21.115,11.733 C22.846,12.840 24.182,14.335 25.051,16.087 C25.588,17.319 25.861,18.649 25.861,20.041 C25.861,20.589 25.662,21.020 25.217,21.433 C24.254,22.323 22.813,22.315 21.867,21.437 C21.418,21.020 21.217,20.589 21.217,20.041 C21.217,18.870 20.861,17.740 20.049,16.528 C19.336,15.643 18.418,14.972 17.318,14.535 C15.492,13.806 13.291,13.961 11.500,15.120 C10.481,15.766 9.713,16.633 9.215,17.703 C8.881,18.428 8.711,19.214 8.711,20.041 C8.711,20.957 8.908,21.818 9.221,22.419 C9.562,23.307 10.094,24.189 10.809,25.070 C11.410,25.860 12.164,26.663 13.119,27.531 C14.037,28.359 15.180,29.327 16.631,30.490 C17.275,31.000 17.857,31.463 18.484,31.970 C19.160,32.519 19.832,33.121 20.525,33.804 C21.195,34.425 21.785,35.035 22.283,35.620 C22.793,36.215 23.266,36.796 23.666,37.315 C24.338,38.249 24.824,39.125 25.147,40.010 C25.711,41.358 25.998,42.687 25.998,43.960 C25.998,45.938 25.361,47.799 24.109,49.490 Z" class="cls-1"/>
</svg>
