<svg xmlns="http://www.w3.org/2000/svg" xmlns:xlink="http://www.w3.org/1999/xlink" preserveAspectRatio="xMidYMid" width="48" height="64" viewBox="0 0 48 64">
  <defs>
    <style>
      .cls-1 {
        fill: #182350;
        fill-rule: evenodd;
      }
    </style>
  </defs>
  <path d="M42.500,64.000 L5.500,64.000 C2.467,64.000 -0.000,61.420 -0.000,58.250 L-0.000,5.750 C-0.000,2.578 2.467,-0.000 5.500,-0.000 L28.000,-0.000 L30.500,-0.000 C33.533,-0.000 36.000,2.578 36.000,5.750 L36.000,7.999 L36.000,10.249 C36.000,11.214 36.674,11.999 37.500,11.999 L40.000,11.999 L42.500,11.999 C45.533,11.999 48.000,14.579 48.000,17.750 L48.000,20.000 L48.000,58.250 C48.000,61.420 45.533,64.000 42.500,64.000 ZM44.000,20.000 L44.000,17.750 C44.000,16.785 43.326,16.000 42.500,16.000 L40.000,16.000 L37.500,16.000 C34.467,16.000 32.000,13.421 32.000,10.249 L32.000,7.999 L32.000,5.750 C32.000,4.785 31.326,3.999 30.500,3.999 L28.000,3.999 L5.500,3.999 C4.674,3.999 4.000,4.785 4.000,5.750 L4.000,58.250 C4.000,59.214 4.674,60.000 5.500,60.000 L42.500,60.000 C43.326,60.000 44.000,59.214 44.000,58.250 L44.000,20.000 ZM38.000,51.999 L10.000,51.999 C8.895,51.999 8.000,51.104 8.000,50.000 C8.000,48.895 8.895,48.000 10.000,48.000 L38.000,48.000 C39.105,48.000 40.000,48.895 40.000,50.000 C40.000,51.104 39.105,51.999 38.000,51.999 ZM38.000,43.999 L10.000,43.999 C8.895,43.999 8.000,43.104 8.000,42.000 C8.000,40.895 8.895,40.000 10.000,40.000 L38.000,40.000 C39.105,40.000 40.000,40.895 40.000,42.000 C40.000,43.104 39.105,43.999 38.000,43.999 ZM38.000,36.000 L10.000,36.000 C8.895,36.000 8.000,35.104 8.000,33.999 C8.000,32.895 8.895,32.000 10.000,32.000 L38.000,32.000 C39.105,32.000 40.000,32.895 40.000,33.999 C40.000,35.104 39.105,36.000 38.000,36.000 ZM38.000,28.000 L10.000,28.000 C8.895,28.000 8.000,27.104 8.000,25.999 C8.000,24.895 8.895,24.000 10.000,24.000 L38.000,24.000 C39.105,24.000 40.000,24.895 40.000,25.999 C40.000,27.104 39.105,28.000 38.000,28.000 ZM26.000,20.000 L10.000,20.000 C8.895,20.000 8.000,19.104 8.000,17.999 C8.000,16.895 8.895,16.000 10.000,16.000 L26.000,16.000 C27.105,16.000 28.000,16.895 28.000,17.999 C28.000,19.104 27.105,20.000 26.000,20.000 Z" class="cls-1"/>
</svg>
